<svg width="63" height="63" viewBox="0 0 63 63" fill="none" xmlns="http://www.w3.org/2000/svg">
<path fill-rule="evenodd" clip-rule="evenodd" d="M37.7479 6.47652C29.1125 -2.15884 15.1119 -2.15884 6.47652 6.47652C-2.15884 15.1119 -2.15884 29.1125 6.47652 37.7479L25.2521 56.5237C33.8876 65.1588 47.8883 65.1588 56.5237 56.5237C65.1588 47.8883 65.1588 33.8876 56.5237 25.2521L37.7479 6.47652ZM9.58451 9.58451C16.5034 2.66563 27.7212 2.66563 34.6401 9.58451L43.1298 18.0744C43.1193 18.1081 43.1085 18.1425 43.0973 18.1776C42.8339 19.0018 42.3862 20.2202 41.6621 21.7222C40.2157 24.7237 37.6629 28.8658 33.2637 33.2649C28.8643 37.6644 24.7227 40.2166 21.7216 41.663C20.2198 42.3867 19.0016 42.8342 18.1776 43.0973C18.1425 43.1085 18.1082 43.1196 18.0745 43.1298L9.58451 34.6401C2.66563 27.7212 2.66563 16.5034 9.58451 9.58451ZM21.5069 46.5623L28.36 53.4156C35.2789 60.3344 46.4967 60.3344 53.4156 53.4156C60.3344 46.4967 60.3344 35.2789 53.4156 28.36L46.562 21.5067C46.3039 22.1477 45.9933 22.8593 45.6217 23.6305C43.9811 27.0346 41.1519 31.5926 36.3716 36.373C31.5915 41.1531 27.0335 43.9823 23.6297 45.6223C22.8589 45.9939 22.1477 46.3042 21.5069 46.5623Z" fill="#66E7A9"/>
</svg>
